<?xml version="1.0" encoding="UTF-8"?>
<!--Generator: Apple Native CoreSVG 175.5-->
<!DOCTYPE svg
PUBLIC "-//W3C//DTD SVG 1.1//EN"
       "http://www.w3.org/Graphics/SVG/1.1/DTD/svg11.dtd">
<svg version="1.1" xmlns="http://www.w3.org/2000/svg" xmlns:xlink="http://www.w3.org/1999/xlink" width="17.3047" height="22.7051">
 <g>
  <rect height="22.7051" opacity="0" width="17.3047" x="0" y="0"/>
  <path d="M4.30664 20.8203C5.21484 20.8203 6.01562 20.6348 6.70898 20.2832C6.23047 20.0293 5.87891 19.5801 5.76172 19.043C5.35156 19.2285 4.89258 19.3066 4.375 19.3066C2.56836 19.3066 1.47461 18.1738 1.47461 16.3086L1.47461 7.66602C1.47461 3.94531 3.92578 1.47461 7.60742 1.47461C11.1621 1.47461 13.5254 3.94531 13.5254 7.62695C13.5254 9.74609 12.6562 10.9473 11.5234 12.1387C12.0996 11.8945 12.7441 11.9434 13.2715 12.2949C14.2578 11.1426 15 9.87305 15 7.62695C15 3.05664 12.041 0 7.60742 0C3.06641 0 0 3.07617 0 7.66602L0 16.4062C0 19.1016 1.67969 20.8203 4.30664 20.8203ZM3.55469 12.6367C3.95508 12.6367 4.29688 12.2949 4.29688 11.8945L4.29688 7.60742C4.29688 5.73242 5.60547 4.49219 7.59766 4.49219C9.49219 4.49219 10.7129 5.72266 10.7129 7.60742C10.7129 8.00781 11.0449 8.34961 11.4453 8.34961C11.8457 8.34961 12.1875 8.00781 12.1875 7.60742C12.1875 4.86328 10.3516 3.01758 7.59766 3.01758C4.74609 3.01758 2.82227 4.86328 2.82227 7.60742L2.82227 11.8945C2.82227 12.2949 3.1543 12.6367 3.55469 12.6367ZM3.47656 9.73633L6.77734 9.73633C7.44141 9.73633 7.86133 10.1367 7.86133 10.7227C7.86133 11.0254 7.70508 11.4355 7.4707 11.7188L6.29883 13.1934C6.17188 13.3594 6.10352 13.5352 6.10352 13.7207C6.10352 14.1211 6.44531 14.4531 6.8457 14.4531C7.07031 14.4531 7.28516 14.3359 7.45117 14.1309L8.7207 12.5195C9.12109 12.0117 9.38477 11.2695 9.38477 10.6641C9.38477 9.22852 8.33984 8.26172 6.75781 8.26172L3.47656 8.26172ZM7.58789 19.1699C7.90039 19.1699 8.14453 18.9258 8.14453 18.623L8.14453 17.1387C8.14453 16.8359 7.90039 16.5918 7.58789 16.5918C7.28516 16.5918 7.05078 16.8359 7.05078 17.1387L7.05078 18.623C7.05078 18.9258 7.28516 19.1699 7.58789 19.1699ZM9.88281 20.8105C10.1953 20.8105 10.4395 20.5664 10.4395 20.2539L10.4395 15.5078C10.4395 15.1953 10.1953 14.9512 9.88281 14.9512C9.58008 14.9512 9.33594 15.1953 9.33594 15.5078L9.33594 20.2539C9.33594 20.5664 9.58008 20.8105 9.88281 20.8105ZM12.1777 22.5C12.4805 22.5 12.7246 22.2559 12.7246 21.9531L12.7246 13.8281C12.7246 13.5156 12.4805 13.2715 12.1777 13.2715C11.8652 13.2715 11.6211 13.5156 11.6211 13.8281L11.6211 21.9531C11.6211 22.2656 11.8555 22.5 12.1777 22.5ZM14.4531 21.5234C14.7754 21.5234 15.0195 21.2793 15.0195 20.9766L15.0195 14.7852C15.0195 14.4824 14.7754 14.2383 14.4531 14.2383C14.1602 14.2383 13.916 14.4824 13.916 14.7852L13.916 20.9766C13.916 21.2793 14.1602 21.5234 14.4531 21.5234ZM16.7578 19.6777C17.0703 19.6777 17.3047 19.4531 17.3047 19.1309L17.3047 16.6211C17.3047 16.3184 17.0703 16.0742 16.7578 16.0742C16.4453 16.0742 16.2012 16.3281 16.2012 16.6211L16.2012 19.1309C16.2012 19.4434 16.4453 19.6777 16.7578 19.6777Z" fill="#ffffff"/>
 </g>
</svg>
