<?xml version="1.0" encoding="UTF-8"?>
<!--Generator: Apple Native CoreSVG 175.5-->
<!DOCTYPE svg
PUBLIC "-//W3C//DTD SVG 1.1//EN"
       "http://www.w3.org/Graphics/SVG/1.1/DTD/svg11.dtd">
<svg version="1.1" xmlns="http://www.w3.org/2000/svg" xmlns:xlink="http://www.w3.org/1999/xlink" width="34.6094" height="45.4102">
 <g>
  <rect height="45.4102" opacity="0" width="34.6094" x="0" y="0"/>
  <path d="M8.61328 41.6406C10.4297 41.6406 12.0312 41.2695 13.418 40.5664C12.4609 40.0586 11.7578 39.1602 11.5234 38.0859C10.7031 38.457 9.78516 38.6133 8.75 38.6133C5.13672 38.6133 2.94922 36.3477 2.94922 32.6172L2.94922 15.332C2.94922 7.89062 7.85156 2.94922 15.2148 2.94922C22.3242 2.94922 27.0508 7.89062 27.0508 15.2539C27.0508 19.4922 25.3125 21.8945 23.0469 24.2773C24.1992 23.7891 25.4883 23.8867 26.543 24.5898C28.5156 22.2852 30 19.7461 30 15.2539C30 6.11328 24.082 0 15.2148 0C6.13281 0 0 6.15234 0 15.332L0 32.8125C0 38.2031 3.35938 41.6406 8.61328 41.6406ZM7.10938 25.2734C7.91016 25.2734 8.59375 24.5898 8.59375 23.7891L8.59375 15.2148C8.59375 11.4648 11.2109 8.98438 15.1953 8.98438C18.9844 8.98438 21.4258 11.4453 21.4258 15.2148C21.4258 16.0156 22.0898 16.6992 22.8906 16.6992C23.6914 16.6992 24.375 16.0156 24.375 15.2148C24.375 9.72656 20.7031 6.03516 15.1953 6.03516C9.49219 6.03516 5.64453 9.72656 5.64453 15.2148L5.64453 23.7891C5.64453 24.5898 6.30859 25.2734 7.10938 25.2734ZM6.95312 19.4727L13.5547 19.4727C14.8828 19.4727 15.7227 20.2734 15.7227 21.4453C15.7227 22.0508 15.4102 22.8711 14.9414 23.4375L12.5977 26.3867C12.3438 26.7188 12.207 27.0703 12.207 27.4414C12.207 28.2422 12.8906 28.9062 13.6914 28.9062C14.1406 28.9062 14.5703 28.6719 14.9023 28.2617L17.4414 25.0391C18.2422 24.0234 18.7695 22.5391 18.7695 21.3281C18.7695 18.457 16.6797 16.5234 13.5156 16.5234L6.95312 16.5234ZM15.1758 38.3398C15.8008 38.3398 16.2891 37.8516 16.2891 37.2461L16.2891 34.2773C16.2891 33.6719 15.8008 33.1836 15.1758 33.1836C14.5703 33.1836 14.1016 33.6719 14.1016 34.2773L14.1016 37.2461C14.1016 37.8516 14.5703 38.3398 15.1758 38.3398ZM19.7656 41.6211C20.3906 41.6211 20.8789 41.1328 20.8789 40.5078L20.8789 31.0156C20.8789 30.3906 20.3906 29.9023 19.7656 29.9023C19.1602 29.9023 18.6719 30.3906 18.6719 31.0156L18.6719 40.5078C18.6719 41.1328 19.1602 41.6211 19.7656 41.6211ZM24.3555 45C24.9609 45 25.4492 44.5117 25.4492 43.9062L25.4492 27.6562C25.4492 27.0312 24.9609 26.543 24.3555 26.543C23.7305 26.543 23.2422 27.0312 23.2422 27.6562L23.2422 43.9062C23.2422 44.5312 23.7109 45 24.3555 45ZM28.9062 43.0469C29.5508 43.0469 30.0391 42.5586 30.0391 41.9531L30.0391 29.5703C30.0391 28.9648 29.5508 28.4766 28.9062 28.4766C28.3203 28.4766 27.832 28.9648 27.832 29.5703L27.832 41.9531C27.832 42.5586 28.3203 43.0469 28.9062 43.0469ZM33.5156 39.3555C34.1406 39.3555 34.6094 38.9062 34.6094 38.2617L34.6094 33.2422C34.6094 32.6367 34.1406 32.1484 33.5156 32.1484C32.8906 32.1484 32.4023 32.6562 32.4023 33.2422L32.4023 38.2617C32.4023 38.8867 32.8906 39.3555 33.5156 39.3555Z" fill="#ffffff" fill-opacity="0.85"/>
 </g>
</svg>
